PathFileType	4	(X/Y/Z)	./resultDataOpenSim/trcMotMarkerGrf/sub09/qtm-01-08.trc
DataRate	CameraRate	NumFrames	NumMarkers	Units	OrigDataRate	OrigDataStartFrame	OrigNumFrames
250.000000	250.000000	8	24	m	250.000000	353	470
Frame#	Time	L.Toe.Tip			R.Toe.Tip			L.Ankle.Lat			R.Ankle.Lat			L.Ankle.Med			R.Ankle.Med			L.Heel			R.Heel			L.Knee.Lat			R.Knee.Lat			L.Knee.Med			R.Knee.Med			L.Thigh.Upper			R.Thigh.Upper			L.ASIS			R.ASIS			V.Sacral			L.Acromium			R.Acromium			C7			L.Elbow			R.Elbow			L.Wrist.Lat			R.Wrist.Lat
		X1	Y1	Z1	X2	Y2	Z2	X3	Y3	Z3	X4	Y4	Z4	X5	Y5	Z5	X6	Y6	Z6	X7	Y7	Z7	X8	Y8	Z8	X9	Y9	Z9	X10	Y10	Z10	X11	Y11	Z11	X12	Y12	Z12	X13	Y13	Z13	X14	Y14	Z14	X15	Y15	Z15	X16	Y16	Z16	X17	Y17	Z17	X18	Y18	Z18	X19	Y19	Z19	X20	Y20	Z20	X21	Y21	Z21	X22	Y22	Z22	X23	Y23	Z23	X24	Y24	Z24

353	1.408	0.75669327	0.081943023	-0.0032994766	0.93486328	0.03895986	0.12255139	0.65734559	0.19818114	-0.031077095	0.78709349	0.05603877	0.16421311	0.68878524	0.19138442	0.061965968	0.79549633	0.097183702	0.073797903	0.57833257	0.2040554	0.017382596	0.71599965	0.038343226	0.11764208	0.93617401	0.50118373	-0.049434078	0.87979747	0.50534963	0.2261109	0.94106779	0.49112975	0.075924864	0.85916834	0.49563972	0.10045229	0.80012066	0.89336211	-0.078442819	0.79940019	0.90624753	0.29055359	0.87332975	0.98290877	-0.022282285	0.88439132	0.99281863	0.21551522	0.70993245	1.0400041	0.099257021	0.85794702	1.4408646	-0.075047122	0.8521768	1.4507188	0.25597181	0.78707996	1.4929262	0.091384016	0.70494079	1.1045381	-0.1308768	0.72828483	1.1060842	0.35443681	0.85303803	0.88057952	-0.14979759	0.90891166	0.89667632	0.35036876
354	1.412	0.77541814	0.080173828	-0.002648042	0.93491578	0.038923332	0.12268286	0.67323508	0.19364667	-0.030496586	0.78711324	0.056279783	0.16410938	0.70542446	0.18771051	0.062292289	0.79583946	0.09751083	0.073782986	0.59396992	0.19750335	0.018027668	0.71679588	0.038556517	0.11734253	0.94520406	0.50330146	-0.048991854	0.88072902	0.50552401	0.22653503	0.94967237	0.49359931	0.076132895	0.85999978	0.49607963	0.10054697	0.80597718	0.89473878	-0.078618462	0.80454078	0.9073129	0.29011256	0.87897378	0.98413542	-0.021902364	0.88939549	0.99363503	0.2159402	0.715071	1.040925	0.099147379	0.86328347	1.4417154	-0.074909209	0.85783318	1.4518657	0.25607384	0.79260414	1.493904	0.091565309	0.70886465	1.1061502	-0.13048871	0.73410902	1.1070726	0.35513138	0.85578205	0.8815185	-0.15046055	0.91649498	0.89905835	0.3497171
355	1.416	0.79446993	0.078434405	-0.0020285397	0.93496016	0.038861725	0.1228389	0.68927693	0.18905057	-0.029893651	0.78715525	0.05649681	0.16399345	0.72185606	0.18399842	0.062777242	0.79626271	0.097829007	0.07374105	0.60985213	0.19084716	0.018676892	0.71764977	0.038735891	0.11711373	0.95415001	0.50533821	-0.048553706	0.88170552	0.50565277	0.22701001	0.95806663	0.49600108	0.076472954	0.86087004	0.49653206	0.1008521	0.81185859	0.89601109	-0.078721369	0.80976258	0.90835148	0.28963391	0.88456163	0.98528879	-0.021547038	0.8943973	0.99440093	0.21634224	0.72032077	1.0418235	0.099014584	0.8686277	1.4425156	-0.074769787	0.86347131	1.4529497	0.25618787	0.79812958	1.4948248	0.091733236	0.71282765	1.1077011	-0.13012796	0.73993249	1.1079736	0.35582518	0.85853748	0.88240088	-0.15113618	0.924054	0.90139575	0.34905522
356	1.42	0.813799	0.076724978	-0.0014559811	0.9350133	0.038801246	0.12300576	0.70546269	0.1844116	-0.029274517	0.78722369	0.056708743	0.16385368	0.73813514	0.1802547	0.063406934	0.79676072	0.098151593	0.073693202	0.62602591	0.18414338	0.019243177	0.7182878	0.038965659	0.11688371	0.96297342	0.50724656	-0.048106847	0.88271348	0.50573813	0.2275227	0.96622957	0.49833123	0.076831398	0.86183198	0.49688167	0.10118053	0.8178163	0.89717968	-0.078742603	0.81486699	0.90919865	0.28933067	0.89009177	0.98637363	-0.021212138	0.89939676	0.99511765	0.21671949	0.72566674	1.0426906	0.098865141	0.87397599	1.4432642	-0.074628845	0.86908406	1.4539682	0.25630991	0.8036508	1.4956949	0.091884989	0.71683272	1.1091828	-0.12979022	0.74574663	1.1087909	0.3565099	0.86128583	0.88322344	-0.15184512	0.93158262	0.90368328	0.34838693
357	1.424	0.83320326	0.075056151	-0.0008964484	0.93508288	0.038758554	0.12317036	0.72180633	0.17974911	-0.028650845	0.78731117	0.056939593	0.163697	0.75438805	0.1764979	0.064133514	0.79731961	0.098500784	0.07367994	0.64249724	0.17743105	0.019711487	0.71863477	0.039292132	0.11657504	0.97163401	0.50900949	-0.047647888	0.88376591	0.50581037	0.22805814	0.97425042	0.50056119	0.077142906	0.8629235	0.49710028	0.10143239	0.82378154	0.89824889	-0.078715105	0.81964572	0.90967794	0.28942523	0.89559642	0.9873875	-0.020889075	0.90439362	0.99578503	0.21707212	0.73104154	1.0435062	0.098692691	0.87932949	1.4439612	-0.074486845	0.87466494	1.4549177	0.25643576	0.80916032	1.4965175	0.092046808	0.72088381	1.1106021	-0.12946747	0.75153981	1.1095297	0.35717641	0.86403277	0.88398789	-0.1525692	0.939086	0.90592319	0.34772025
358	1.428	0.85255078	0.073450255	-0.00031876753	0.93515512	0.038720443	0.12332133	0.73833572	0.17508224	-0.028035983	0.78739656	0.057204069	0.16353669	0.77067593	0.17274544	0.06492934	0.79789118	0.098889605	0.073681759	0.65920619	0.17071849	0.020165355	0.71879821	0.039705138	0.11618451	0.98012423	0.51064944	-0.047191332	0.88488911	0.50591009	0.22860026	0.98221207	0.50266072	0.077417756	0.86420254	0.49723969	0.10166012	0.82966622	0.89922856	-0.078670188	0.82408674	0.90982707	0.28988589	0.90112585	0.98831966	-0.020571004	0.90939062	0.99640197	0.21740571	0.73639508	1.0442686	0.098496493	0.88468888	1.4446094	-0.074343654	0.88021335	1.4557967	0.25656506	0.81465215	1.497293	0.092225063	0.7249814	1.1119655	-0.12915539	0.75730467	1.1101916	0.35782185	0.8667984	0.88470089	-0.15327849	0.94657649	0.90811881	0.34705952
359	1.432	0.87184238	0.071917745	0.00026983224	0.93520143	0.038651089	0.1234497	0.75506123	0.17042112	-0.027440142	0.78746171	0.057497893	0.16337615	0.78701027	0.16902066	0.065769287	0.79831233	0.09929172	0.073630585	0.67602779	0.16399535	0.020758454	0.71890396	0.040159427	0.11574639	0.98845012	0.51219619	-0.046757182	0.88608125	0.50605668	0.22911577	0.99010087	0.50460695	0.077667453	0.86571394	0.49735456	0.10195652	0.83544985	0.90012944	-0.078627606	0.82838538	0.90992937	0.29040527	0.90670191	0.98916114	-0.020251849	0.91439103	0.99696901	0.21772789	0.74174098	1.0449895	0.098296211	0.89005322	1.445214	-0.074196745	0.8857338	1.4566063	0.25669986	0.82012239	1.4980178	0.092408545	0.72911775	1.1132763	-0.12885575	0.76304264	1.1107765	0.35845052	0.86959871	0.885374	-0.15396933	0.95407234	0.91027318	0.34640612
360	1.436	0.89114749	0.070474116	0.00085017597	0.93520817	0.038536607	0.12355245	0.77195508	0.16576152	-0.0268566	0.78750301	0.057806042	0.16320911	0.80345919	0.16534873	0.066574713	0.7984709	0.099666144	0.073518292	0.69288775	0.15723493	0.021598545	0.71900261	0.040603478	0.11527489	0.99662339	0.51366237	-0.046346795	0.88729284	0.50623294	0.2295525	0.99786621	0.5063883	0.077889366	0.86738033	0.49748348	0.10233014	0.84119113	0.90095698	-0.078599637	0.83256681	0.91021567	0.29075995	0.91231494	0.98991487	-0.019933319	0.9193971	0.99748859	0.21804278	0.74711859	1.0456668	0.098104427	0.89542483	1.4457765	-0.074043706	0.89123034	1.4573479	0.25683973	0.82557626	1.4986814	0.092591617	0.73329062	1.114546	-0.12856187	0.76876453	1.111287	0.35907062	0.87244759	0.88601503	-0.15465553	0.96159184	0.91239138	0.34576369
